<svg width="220" height="123" viewBox="0 0 220 123" fill="none" xmlns="http://www.w3.org/2000/svg">
<path d="M49.2457 71.1252V66.8746L55.6699 67.8568C55.7785 68.0379 58.3551 72.0408 66.0867 84.4634C66.092 84.4679 66.0947 84.4721 66.0947 84.4762C66.092 84.4719 66.0894 84.4677 66.0867 84.4634C65.8376 84.2528 59.7868 83.6 56.523 83.2807L52.7777 76.7764L49.2457 71.1252Z" fill="#182A50"/>
<path d="M83.37 58.4503C83.6203 61.0153 83.6458 63.5775 83.5833 66.7681C83.5833 67.3937 82.0677 67.5018 81.4421 67.5018C80.8165 67.5018 51.165 67.5146 51.165 67.5146C50.9148 67.5146 49.2455 67.7279 49.2455 69.0075C49.2455 71.1346 49.8417 75.7421 51.2717 77.6616C52.6213 79.4733 53.8231 81.0309 55.8231 82.0815C58.6718 83.5778 60.5852 83.8627 63.7997 83.7195C68.5334 83.5085 71.9953 81.3848 74.4978 77.5685C74.8106 76.9429 75.692 77.1121 75.692 77.1121L83.37 77.3254C83.5833 77.7519 81.5985 81.635 81.3483 82.0729C80.2831 83.937 77.0941 87.1091 73.8409 88.7358C70.6502 90.3624 67.0217 91.1756 62.9552 91.1756C58.3882 91.1756 54.5406 90.1747 51.4126 88.1727C46.4729 85.0113 43.9809 81.2873 43.308 79.633C41.8065 75.9419 41.0558 69.7625 41.0558 64.5074C41.0558 59.9404 41.5675 55.9677 42.0881 54.0909C43.7816 49.2143 45.6342 46.3264 49.9111 43.4355C54.0316 40.6503 57.2309 40.0971 62.2044 40.1084C68.1243 40.1218 73.4598 41.7037 76.5879 44.8943C79.716 48.0224 82.6818 52.3193 83.37 58.4503ZM62.2044 46.8309C59.5143 46.8309 56.1159 48.0096 54.3642 49.386C52.6125 50.6998 50.511 53.1055 49.8854 55.3578C49.4474 56.7341 49.3707 59.2024 49.2455 61.3295C49.2455 61.5798 51.2562 61.5812 51.5064 61.5812H72.9963C73.2465 61.5812 75.931 61.6694 75.931 61.4191C75.8059 59.3546 76.0119 57.8104 75.3679 55.9677C74.7423 53.5278 72.0236 49.8651 70.1468 48.4262C68.3325 46.9247 63.6418 46.8309 62.2044 46.8309Z" fill="url(#paint0_linear_795_1994)"/>
<path d="M70.0402 49.1727L63.3219 47.3598C60.8747 54.0148 58.1529 57.409 52.7647 61.2229L50.2053 58.3436L48.7124 66.4482L58.6298 68.581C57.9189 67.7278 56.7103 65.4884 56.7103 65.4884C56.7103 65.4884 67.0543 61.5428 70.0402 49.1727Z" fill="url(#paint1_linear_795_1994)"/>
<path d="M39.5507 90.7618H31.9807V26.5538H27.2782L36.3392 18.8871C38.9389 21.4427 44.0926 26.5538 43.9091 26.5538C43.6797 26.5538 39.5507 26.4473 39.5507 26.5538V90.7618Z" fill="url(#paint2_linear_795_1994)"/>
<path d="M63.6429 33.71C61.5619 25.7931 53.6188 23.5793 44.8744 26.032L37.5164 18.5673C54.5786 14.515 69.9346 19.4204 70.5744 33.71L73.4537 33.6033L67.3753 39.4685L60.1238 33.8166L63.6429 33.71Z" fill="url(#paint3_linear_795_1994)"/>
<path d="M96.9997 70.8542C95.7857 70.8542 94.6667 70.6641 93.6428 70.2838C92.6335 69.8888 91.7486 69.333 90.988 68.6163C90.242 67.8995 89.6569 67.0585 89.2327 66.0931C88.8232 65.1277 88.6184 64.0672 88.6184 62.9117C88.6184 61.7562 88.8232 60.6957 89.2327 59.7303C89.6569 58.7649 90.2493 57.9238 91.0099 57.2071C91.7705 56.4904 92.6628 55.9419 93.6867 55.5616C94.7106 55.1666 95.8369 54.9692 97.0656 54.9692C98.4259 54.9692 99.6472 55.1959 100.73 55.6493C101.827 56.1028 102.748 56.761 103.494 57.624L101.212 59.7303C100.657 59.1452 100.049 58.7137 99.3913 58.4358C98.733 58.1433 98.0163 57.997 97.2411 57.997C96.4951 57.997 95.8149 58.114 95.2006 58.348C94.5863 58.5821 94.0524 58.9185 93.5989 59.3573C93.1601 59.7961 92.8164 60.3154 92.5677 60.9151C92.3337 61.5148 92.2167 62.1803 92.2167 62.9117C92.2167 63.6284 92.3337 64.2866 92.5677 64.8864C92.8164 65.4861 93.1601 66.0126 93.5989 66.4661C94.0524 66.9049 94.5789 67.2413 95.1787 67.4754C95.793 67.7094 96.4658 67.8264 97.1972 67.8264C97.8993 67.8264 98.5795 67.7167 99.2377 67.4973C99.9105 67.2633 100.561 66.8757 101.19 66.3344L103.209 68.9015C102.375 69.5305 101.402 70.0132 100.291 70.3496C99.1938 70.686 98.0968 70.8542 96.9997 70.8542ZM99.9617 68.4408V62.6703H103.209V68.9015L99.9617 68.4408ZM111.776 70.5909V55.2325H118.424C119.799 55.2325 120.984 55.4592 121.979 55.9126C122.974 56.3514 123.741 56.9877 124.283 57.8215C124.824 58.6552 125.094 59.6498 125.094 60.8054C125.094 61.9463 124.824 62.9336 124.283 63.7674C123.741 64.5865 122.974 65.2155 121.979 65.6543C120.984 66.0931 119.799 66.3125 118.424 66.3125H113.751L115.331 64.7547V70.5909H111.776ZM121.54 70.5909L117.7 65.018H121.496L125.38 70.5909H121.54ZM115.331 65.1496L113.751 63.4822H118.227C119.324 63.4822 120.143 63.2481 120.684 62.7801C121.226 62.2974 121.496 61.6391 121.496 60.8054C121.496 59.957 121.226 59.2988 120.684 58.8307C120.143 58.3627 119.324 58.1286 118.227 58.1286H113.751L115.331 56.4392V65.1496ZM136.446 61.4197H143.84V64.1843H136.446V61.4197ZM136.709 67.7387H145.068V70.5909H133.176V55.2325H144.783V58.0847H136.709V67.7387ZM156.431 61.4197H163.825V64.1843H156.431V61.4197ZM156.695 67.7387H165.054V70.5909H153.162V55.2325H164.769V58.0847H156.695V67.7387ZM173.148 70.5909V55.2325H176.088L185.149 66.2906H183.723V55.2325H187.234V70.5909H184.316L175.232 59.5328H176.658V70.5909H173.148Z" fill="#182A50"/>
<path d="M91.487 81.6458H95.6142V82.9148H91.487V81.6458ZM91.6056 85.2038H96.2902V86.4965H90.0638V78.1946H96.1242V79.4874H91.6056V85.2038ZM104.935 86.6151C104.303 86.6151 103.714 86.5123 103.168 86.3068C102.63 86.0933 102.16 85.7968 101.757 85.4173C101.361 85.0299 101.053 84.5752 100.832 84.0534C100.61 83.5316 100.5 82.9623 100.5 82.3456C100.5 81.7289 100.61 81.1596 100.832 80.6378C101.053 80.1159 101.365 79.6653 101.769 79.2857C102.172 78.8983 102.642 78.6018 103.18 78.3963C103.718 78.1828 104.307 78.076 104.947 78.076C105.627 78.076 106.248 78.1946 106.809 78.4318C107.37 78.6611 107.845 79.0051 108.232 79.4636L107.236 80.4006C106.935 80.0764 106.599 79.8352 106.228 79.6771C105.856 79.5111 105.453 79.4281 105.018 79.4281C104.583 79.4281 104.184 79.4992 103.82 79.6415C103.464 79.7839 103.152 79.9855 102.883 80.2464C102.622 80.5073 102.417 80.8157 102.267 81.1715C102.124 81.5272 102.053 81.9186 102.053 82.3456C102.053 82.7725 102.124 83.1639 102.267 83.5197C102.417 83.8755 102.622 84.1839 102.883 84.4448C103.152 84.7057 103.464 84.9073 103.82 85.0496C104.184 85.1919 104.583 85.2631 105.018 85.2631C105.453 85.2631 105.856 85.184 106.228 85.0259C106.599 84.8599 106.935 84.6108 107.236 84.2787L108.232 85.2275C107.845 85.6782 107.37 86.0221 106.809 86.2593C106.248 86.4965 105.623 86.6151 104.935 86.6151ZM116.509 86.6151C115.861 86.6151 115.264 86.5084 114.718 86.2949C114.173 86.0814 113.699 85.7849 113.295 85.4054C112.892 85.018 112.58 84.5673 112.358 84.0534C112.137 83.5316 112.026 82.9623 112.026 82.3456C112.026 81.7289 112.137 81.1635 112.358 80.6496C112.58 80.1278 112.892 79.6771 113.295 79.2976C113.699 78.9102 114.173 78.6097 114.718 78.3963C115.264 78.1828 115.857 78.076 116.497 78.076C117.146 78.076 117.739 78.1828 118.276 78.3963C118.822 78.6097 119.296 78.9102 119.7 79.2976C120.103 79.6771 120.415 80.1278 120.637 80.6496C120.858 81.1635 120.969 81.7289 120.969 82.3456C120.969 82.9623 120.858 83.5316 120.637 84.0534C120.415 84.5752 120.103 85.0259 119.7 85.4054C119.296 85.7849 118.822 86.0814 118.276 86.2949C117.739 86.5084 117.15 86.6151 116.509 86.6151ZM116.497 85.2631C116.916 85.2631 117.304 85.1919 117.66 85.0496C118.015 84.9073 118.324 84.7057 118.585 84.4448C118.846 84.1759 119.047 83.8676 119.19 83.5197C119.34 83.1639 119.415 82.7725 119.415 82.3456C119.415 81.9186 119.34 81.5312 119.19 81.1833C119.047 80.8275 118.846 80.5192 118.585 80.2582C118.324 79.9894 118.015 79.7839 117.66 79.6415C117.304 79.4992 116.916 79.4281 116.497 79.4281C116.078 79.4281 115.691 79.4992 115.335 79.6415C114.987 79.7839 114.679 79.9894 114.41 80.2582C114.149 80.5192 113.944 80.8275 113.793 81.1833C113.651 81.5312 113.58 81.9186 113.58 82.3456C113.58 82.7646 113.651 83.152 113.793 83.5078C113.944 83.8636 114.149 84.1759 114.41 84.4448C114.671 84.7057 114.979 84.9073 115.335 85.0496C115.691 85.1919 116.078 85.2631 116.497 85.2631ZM128.26 86.6151C127.612 86.6151 126.991 86.5242 126.398 86.3423C125.805 86.1526 125.335 85.9114 124.987 85.6189L125.52 84.421C125.852 84.682 126.264 84.8994 126.754 85.0733C127.244 85.2473 127.746 85.3343 128.26 85.3343C128.695 85.3343 129.047 85.2868 129.316 85.1919C129.584 85.0971 129.782 84.9706 129.909 84.8124C130.035 84.6464 130.098 84.4606 130.098 84.255C130.098 84.002 130.007 83.8004 129.825 83.6502C129.644 83.492 129.406 83.3695 129.114 83.2825C128.829 83.1876 128.509 83.1007 128.153 83.0216C127.805 82.9425 127.454 82.8516 127.098 82.7488C126.75 82.6381 126.43 82.4998 126.137 82.3337C125.852 82.1598 125.619 81.9305 125.437 81.6458C125.255 81.3612 125.165 80.9975 125.165 80.5547C125.165 80.1041 125.283 79.6929 125.52 79.3213C125.765 78.9418 126.133 78.6414 126.623 78.42C127.121 78.1907 127.75 78.076 128.509 78.076C129.007 78.076 129.501 78.1393 129.992 78.2658C130.482 78.3923 130.909 78.5741 131.272 78.8113L130.786 80.0092C130.415 79.7878 130.031 79.6257 129.636 79.5229C129.24 79.4122 128.861 79.3569 128.497 79.3569C128.07 79.3569 127.722 79.4083 127.454 79.5111C127.193 79.6139 126.999 79.7483 126.872 79.9143C126.754 80.0803 126.694 80.2701 126.694 80.4836C126.694 80.7366 126.781 80.9422 126.955 81.1003C127.137 81.2505 127.37 81.3691 127.655 81.4561C127.948 81.5431 128.272 81.63 128.628 81.717C128.983 81.7961 129.335 81.887 129.683 81.9898C130.039 82.0926 130.359 82.227 130.644 82.393C130.936 82.5591 131.17 82.7844 131.344 83.069C131.525 83.3537 131.616 83.7134 131.616 84.1483C131.616 84.591 131.494 85.0022 131.249 85.3817C131.011 85.7533 130.644 86.0538 130.146 86.283C129.648 86.5044 129.019 86.6151 128.26 86.6151ZM138.095 86.4965V83.2113L138.439 84.1601L134.833 78.1946H136.482L139.376 82.9979H138.451L141.368 78.1946H142.886L139.281 84.1601L139.637 83.2113V86.4965H138.095ZM149.379 86.6151C148.731 86.6151 148.11 86.5242 147.517 86.3423C146.924 86.1526 146.454 85.9114 146.106 85.6189L146.64 84.421C146.972 84.682 147.383 84.8994 147.873 85.0733C148.363 85.2473 148.865 85.3343 149.379 85.3343C149.814 85.3343 150.166 85.2868 150.435 85.1919C150.704 85.0971 150.901 84.9706 151.028 84.8124C151.154 84.6464 151.218 84.4606 151.218 84.255C151.218 84.002 151.127 83.8004 150.945 83.6502C150.763 83.492 150.526 83.3695 150.233 83.2825C149.949 83.1876 149.628 83.1007 149.273 83.0216C148.925 82.9425 148.573 82.8516 148.217 82.7488C147.869 82.6381 147.549 82.4998 147.256 82.3337C146.972 82.1598 146.739 81.9305 146.557 81.6458C146.375 81.3612 146.284 80.9975 146.284 80.5547C146.284 80.1041 146.402 79.6929 146.64 79.3213C146.885 78.9418 147.252 78.6414 147.743 78.42C148.241 78.1907 148.869 78.076 149.628 78.076C150.126 78.076 150.621 78.1393 151.111 78.2658C151.601 78.3923 152.028 78.5741 152.392 78.8113L151.905 80.0092C151.534 79.7878 151.15 79.6257 150.755 79.5229C150.36 79.4122 149.98 79.3569 149.616 79.3569C149.19 79.3569 148.842 79.4083 148.573 79.5111C148.312 79.6139 148.118 79.7483 147.992 79.9143C147.873 80.0803 147.814 80.2701 147.814 80.4836C147.814 80.7366 147.901 80.9422 148.075 81.1003C148.257 81.2505 148.49 81.3691 148.774 81.4561C149.067 81.5431 149.391 81.63 149.747 81.717C150.103 81.7961 150.455 81.887 150.802 81.9898C151.158 82.0926 151.478 82.227 151.763 82.393C152.056 82.5591 152.289 82.7844 152.463 83.069C152.645 83.3537 152.736 83.7134 152.736 84.1483C152.736 84.591 152.613 85.0022 152.368 85.3817C152.131 85.7533 151.763 86.0538 151.265 86.283C150.767 86.5044 150.138 86.6151 149.379 86.6151ZM158.916 86.4965V79.4992H156.165V78.1946H163.21V79.4992H160.458V86.4965H158.916ZM168.873 81.6458H173.001V82.9148H168.873V81.6458ZM168.992 85.2038H173.677V86.4965H167.45V78.1946H173.511V79.4874H168.992V85.2038ZM178.479 86.4965V78.1946H179.748L183.377 84.255H182.713L186.283 78.1946H187.552L187.564 86.4965H186.105L186.093 80.4836H186.401L183.365 85.5477H182.677L179.594 80.4836H179.95V86.4965H178.479Z" fill="#182A50"/>
<path d="M35.7875 101.628C35.3877 101.628 35.0183 101.563 34.6793 101.431C34.3403 101.294 34.0468 101.105 33.7988 100.862C33.5509 100.619 33.3561 100.333 33.2144 100.004C33.0778 99.6752 33.0094 99.3159 33.0094 98.9263C33.0094 98.5366 33.0778 98.1774 33.2144 97.8485C33.3561 97.5195 33.5509 97.2336 33.7988 96.9908C34.0518 96.7479 34.3479 96.5606 34.6869 96.4291C35.0259 96.2924 35.3953 96.2241 35.7951 96.2241C36.1797 96.2241 36.5415 96.2899 36.8805 96.4215C37.2195 96.548 37.5054 96.7403 37.7382 96.9983L37.3815 97.3551C37.1639 97.1324 36.9235 96.973 36.6604 96.8769C36.3972 96.7757 36.1139 96.7251 35.8103 96.7251C35.4915 96.7251 35.1954 96.7808 34.9222 96.8921C34.6489 96.9983 34.4111 97.1527 34.2087 97.3551C34.0063 97.5524 33.8469 97.7852 33.7305 98.0534C33.6192 98.3165 33.5635 98.6075 33.5635 98.9263C33.5635 99.2451 33.6192 99.5386 33.7305 99.8068C33.8469 100.07 34.0063 100.303 34.2087 100.505C34.4111 100.702 34.6489 100.857 34.9222 100.968C35.1954 101.074 35.4915 101.127 35.8103 101.127C36.1139 101.127 36.3972 101.077 36.6604 100.976C36.9235 100.874 37.1639 100.713 37.3815 100.49L37.7382 100.847C37.5054 101.105 37.2195 101.3 36.8805 101.431C36.5415 101.563 36.1771 101.628 35.7875 101.628ZM42.1278 101.621C41.7432 101.621 41.3966 101.535 41.0879 101.363C40.7843 101.186 40.5439 100.945 40.3668 100.642C40.1897 100.333 40.1012 99.9813 40.1012 99.5866C40.1012 99.1869 40.1897 98.8352 40.3668 98.5316C40.5439 98.228 40.7843 97.9901 41.0879 97.8181C41.3915 97.6461 41.7381 97.56 42.1278 97.56C42.5225 97.56 42.8716 97.6461 43.1752 97.8181C43.4839 97.9901 43.7243 98.228 43.8963 98.5316C44.0734 98.8352 44.162 99.1869 44.162 99.5866C44.162 99.9813 44.0734 100.333 43.8963 100.642C43.7243 100.945 43.4839 101.186 43.1752 101.363C42.8665 101.535 42.5174 101.621 42.1278 101.621ZM42.1278 101.143C42.4162 101.143 42.6717 101.079 42.8944 100.953C43.117 100.821 43.2916 100.639 43.4181 100.406C43.5497 100.169 43.6155 99.8953 43.6155 99.5866C43.6155 99.2729 43.5497 98.9997 43.4181 98.7669C43.2916 98.5341 43.117 98.3545 42.8944 98.228C42.6717 98.0964 42.4187 98.0306 42.1354 98.0306C41.852 98.0306 41.599 98.0964 41.3763 98.228C41.1537 98.3545 40.9766 98.5341 40.845 98.7669C40.7134 98.9997 40.6477 99.2729 40.6477 99.5866C40.6477 99.8953 40.7134 100.169 40.845 100.406C40.9766 100.639 41.1537 100.821 41.3763 100.953C41.599 101.079 41.8494 101.143 42.1278 101.143ZM52.1011 97.56C52.4249 97.56 52.7057 97.6233 52.9436 97.7498C53.1865 97.8712 53.3737 98.0585 53.5053 98.3115C53.6419 98.5645 53.7102 98.8833 53.7102 99.2678V101.583H53.1713V99.321C53.1713 98.901 53.0701 98.5847 52.8677 98.3722C52.6703 98.1546 52.3895 98.0458 52.0252 98.0458C51.7519 98.0458 51.5141 98.104 51.3117 98.2204C51.1143 98.3317 50.96 98.4962 50.8487 98.7138C50.7424 98.9263 50.6893 99.1844 50.6893 99.488V101.583H50.1503V99.321C50.1503 98.901 50.0491 98.5847 49.8467 98.3722C49.6443 98.1546 49.361 98.0458 48.9966 98.0458C48.7284 98.0458 48.4931 98.104 48.2907 98.2204C48.0883 98.3317 47.9315 98.4962 47.8201 98.7138C47.7139 98.9263 47.6607 99.1844 47.6607 99.488V101.583H47.1218V97.598H47.638V98.6758L47.5545 98.486C47.6759 98.1976 47.8707 97.9724 48.1389 97.8105C48.4122 97.6435 48.7335 97.56 49.1029 97.56C49.4925 97.56 49.824 97.6587 50.0972 97.856C50.3705 98.0483 50.5476 98.3393 50.6285 98.7289L50.416 98.6454C50.5324 98.3216 50.7373 98.061 51.0308 97.8636C51.3294 97.6612 51.6861 97.56 52.1011 97.56ZM62.0105 97.56C62.3344 97.56 62.6152 97.6233 62.8531 97.7498C63.096 97.8712 63.2832 98.0585 63.4147 98.3115C63.5514 98.5645 63.6197 98.8833 63.6197 99.2678V101.583H63.0808V99.321C63.0808 98.901 62.9796 98.5847 62.7772 98.3722C62.5798 98.1546 62.299 98.0458 61.9346 98.0458C61.6614 98.0458 61.4236 98.104 61.2212 98.2204C61.0238 98.3317 60.8695 98.4962 60.7581 98.7138C60.6519 98.9263 60.5987 99.1844 60.5987 99.488V101.583H60.0598V99.321C60.0598 98.901 59.9586 98.5847 59.7562 98.3722C59.5538 98.1546 59.2704 98.0458 58.9061 98.0458C58.6379 98.0458 58.4026 98.104 58.2002 98.2204C57.9978 98.3317 57.8409 98.4962 57.7296 98.7138C57.6234 98.9263 57.5702 99.1844 57.5702 99.488V101.583H57.0313V97.598H57.5474V98.6758L57.464 98.486C57.5854 98.1976 57.7802 97.9724 58.0484 97.8105C58.3217 97.6435 58.643 97.56 59.0124 97.56C59.402 97.56 59.7335 97.6587 60.0067 97.856C60.28 98.0483 60.4571 98.3393 60.538 98.7289L60.3255 98.6454C60.4419 98.3216 60.6468 98.061 60.9403 97.8636C61.2389 97.6612 61.5956 97.56 62.0105 97.56ZM66.9408 101.583V97.598H67.4797V101.583H66.9408ZM67.214 96.7175C67.1027 96.7175 67.0091 96.6796 66.9332 96.6037C66.8573 96.5277 66.8194 96.4367 66.8194 96.3304C66.8194 96.2241 66.8573 96.1356 66.9332 96.0647C67.0091 95.9888 67.1027 95.9509 67.214 95.9509C67.3254 95.9509 67.419 95.9863 67.4949 96.0571C67.5708 96.128 67.6087 96.2165 67.6087 96.3228C67.6087 96.4341 67.5708 96.5277 67.4949 96.6037C67.424 96.6796 67.3304 96.7175 67.214 96.7175ZM72.0988 101.621C71.7244 101.621 71.4359 101.52 71.2335 101.317C71.0311 101.115 70.9299 100.829 70.9299 100.46V96.7175H71.4688V100.429C71.4688 100.662 71.527 100.842 71.6434 100.968C71.7648 101.095 71.9369 101.158 72.1595 101.158C72.3974 101.158 72.5947 101.09 72.7516 100.953L72.9413 101.34C72.8351 101.436 72.706 101.507 72.5542 101.553C72.4075 101.598 72.2557 101.621 72.0988 101.621ZM70.2164 98.0458V97.598H72.6833V98.0458H70.2164ZM76.9382 101.621C76.5638 101.621 76.2753 101.52 76.0729 101.317C75.8705 101.115 75.7693 100.829 75.7693 100.46V96.7175H76.3082V100.429C76.3082 100.662 76.3664 100.842 76.4828 100.968C76.6043 101.095 76.7763 101.158 76.999 101.158C77.2368 101.158 77.4341 101.09 77.591 100.953L77.7808 101.34C77.6745 101.436 77.5455 101.507 77.3936 101.553C77.2469 101.598 77.0951 101.621 76.9382 101.621ZM75.0558 98.0458V97.598H77.5227V98.0458H75.0558ZM82.1732 101.621C81.7583 101.621 81.394 101.535 81.0802 101.363C80.7665 101.186 80.5211 100.945 80.344 100.642C80.1669 100.333 80.0783 99.9813 80.0783 99.5866C80.0783 99.1919 80.1618 98.8428 80.3288 98.5392C80.5008 98.2356 80.7336 97.9977 81.0271 97.8257C81.3256 97.6486 81.6596 97.56 82.029 97.56C82.4035 97.56 82.7349 97.6461 83.0233 97.8181C83.3168 97.9851 83.5471 98.2229 83.7141 98.5316C83.881 98.8352 83.9645 99.1869 83.9645 99.5866C83.9645 99.6119 83.962 99.6398 83.9569 99.6701C83.9569 99.6954 83.9569 99.7233 83.9569 99.7536H80.4882V99.3513H83.6685L83.456 99.5107C83.456 99.2223 83.3927 98.9668 83.2662 98.7441C83.1448 98.5164 82.9778 98.3393 82.7653 98.2128C82.5527 98.0863 82.3073 98.023 82.029 98.023C81.7558 98.023 81.5103 98.0863 81.2927 98.2128C81.0752 98.3393 80.9056 98.5164 80.7842 98.7441C80.6628 98.9718 80.602 99.2324 80.602 99.5259V99.6094C80.602 99.913 80.6678 100.181 80.7994 100.414C80.936 100.642 81.1232 100.821 81.3611 100.953C81.6039 101.079 81.8797 101.143 82.1884 101.143C82.4313 101.143 82.6565 101.1 82.8639 101.014C83.0765 100.928 83.2586 100.796 83.4104 100.619L83.7141 100.968C83.5369 101.181 83.3143 101.343 83.0461 101.454C82.783 101.565 82.492 101.621 82.1732 101.621ZM88.5074 101.621C88.1279 101.621 87.7864 101.535 87.4827 101.363C87.1842 101.191 86.9489 100.953 86.7769 100.649C86.6048 100.341 86.5188 99.9864 86.5188 99.5866C86.5188 99.1818 86.6048 98.8276 86.7769 98.524C86.9489 98.2204 87.1842 97.9851 87.4827 97.8181C87.7864 97.6461 88.1279 97.56 88.5074 97.56C88.8566 97.56 89.1678 97.6385 89.441 97.7953C89.7194 97.9522 89.9395 98.1824 90.1014 98.486C90.2684 98.7846 90.3519 99.1515 90.3519 99.5866C90.3519 100.017 90.2709 100.384 90.109 100.687C89.9471 100.991 89.7269 101.224 89.4486 101.386C89.1754 101.542 88.8617 101.621 88.5074 101.621ZM88.5454 101.143C88.8288 101.143 89.0818 101.079 89.3044 100.953C89.5321 100.821 89.7092 100.639 89.8357 100.406C89.9673 100.169 90.0331 99.8953 90.0331 99.5866C90.0331 99.2729 89.9673 98.9997 89.8357 98.7669C89.7092 98.5341 89.5321 98.3545 89.3044 98.228C89.0818 98.0964 88.8288 98.0306 88.5454 98.0306C88.2671 98.0306 88.0166 98.0964 87.794 98.228C87.5713 98.3545 87.3942 98.5341 87.2626 98.7669C87.1311 98.9997 87.0653 99.2729 87.0653 99.5866C87.0653 99.8953 87.1311 100.169 87.2626 100.406C87.3942 100.639 87.5713 100.821 87.794 100.953C88.0166 101.079 88.2671 101.143 88.5454 101.143ZM90.0483 101.583V100.384L90.1014 99.579L90.0255 98.7745V95.9509H90.5644V101.583H90.0483ZM99.031 101.621C98.6566 101.621 98.3682 101.52 98.1657 101.317C97.9633 101.115 97.8621 100.829 97.8621 100.46V96.7175H98.401V100.429C98.401 100.662 98.4592 100.842 98.5756 100.968C98.6971 101.095 98.8691 101.158 99.0918 101.158C99.3296 101.158 99.5269 101.09 99.6838 100.953L99.8736 101.34C99.7673 101.436 99.6383 101.507 99.4865 101.553C99.3397 101.598 99.1879 101.621 99.031 101.621ZM97.1486 98.0458V97.598H99.6155V98.0458H97.1486ZM104.198 101.621C103.813 101.621 103.467 101.535 103.158 101.363C102.854 101.186 102.614 100.945 102.437 100.642C102.26 100.333 102.171 99.9813 102.171 99.5866C102.171 99.1869 102.26 98.8352 102.437 98.5316C102.614 98.228 102.854 97.9901 103.158 97.8181C103.461 97.6461 103.808 97.56 104.198 97.56C104.592 97.56 104.942 97.6461 105.245 97.8181C105.554 97.9901 105.794 98.228 105.966 98.5316C106.143 98.8352 106.232 99.1869 106.232 99.5866C106.232 99.9813 106.143 100.333 105.966 100.642C105.794 100.945 105.554 101.186 105.245 101.363C104.937 101.535 104.587 101.621 104.198 101.621ZM104.198 101.143C104.486 101.143 104.742 101.079 104.964 100.953C105.187 100.821 105.362 100.639 105.488 100.406C105.62 100.169 105.685 99.8953 105.685 99.5866C105.685 99.2729 105.62 98.9997 105.488 98.7669C105.362 98.5341 105.187 98.3545 104.964 98.228C104.742 98.0964 104.489 98.0306 104.205 98.0306C103.922 98.0306 103.669 98.0964 103.446 98.228C103.224 98.3545 103.047 98.5341 102.915 98.7669C102.783 98.9997 102.718 99.2729 102.718 99.5866C102.718 99.8953 102.783 100.169 102.915 100.406C103.047 100.639 103.224 100.821 103.446 100.953C103.669 101.079 103.919 101.143 104.198 101.143ZM115.535 101.583V100.702L115.512 100.558V99.0857C115.512 98.7466 115.416 98.486 115.224 98.3039C115.037 98.1217 114.756 98.0306 114.381 98.0306C114.123 98.0306 113.878 98.0736 113.645 98.1597C113.412 98.2457 113.215 98.3595 113.053 98.5012L112.81 98.0989C113.013 97.9269 113.256 97.7953 113.539 97.7042C113.822 97.6081 114.121 97.56 114.435 97.56C114.951 97.56 115.348 97.6891 115.626 97.9471C115.91 98.2001 116.051 98.5872 116.051 99.1084V101.583H115.535ZM114.161 101.621C113.863 101.621 113.602 101.573 113.379 101.477C113.162 101.375 112.995 101.239 112.879 101.067C112.762 100.89 112.704 100.687 112.704 100.46C112.704 100.252 112.752 100.065 112.848 99.8978C112.949 99.7258 113.111 99.5892 113.334 99.488C113.562 99.3817 113.865 99.3286 114.245 99.3286H115.619V99.7309H114.26C113.875 99.7309 113.607 99.7992 113.455 99.9358C113.309 100.072 113.235 100.242 113.235 100.444C113.235 100.672 113.324 100.854 113.501 100.991C113.678 101.127 113.926 101.196 114.245 101.196C114.548 101.196 114.809 101.127 115.027 100.991C115.249 100.849 115.411 100.647 115.512 100.384L115.634 100.756C115.533 101.019 115.355 101.229 115.102 101.386C114.855 101.542 114.541 101.621 114.161 101.621ZM124.921 103.093C124.557 103.093 124.208 103.04 123.874 102.934C123.54 102.828 123.269 102.676 123.061 102.479L123.335 102.069C123.522 102.236 123.752 102.367 124.025 102.463C124.304 102.565 124.597 102.615 124.906 102.615C125.412 102.615 125.784 102.496 126.022 102.258C126.259 102.026 126.378 101.661 126.378 101.165V100.171L126.454 99.488L126.401 98.8048V97.598H126.917V101.097C126.917 101.785 126.748 102.289 126.409 102.608C126.075 102.931 125.579 103.093 124.921 103.093ZM124.822 101.431C124.443 101.431 124.101 101.35 123.798 101.188C123.494 101.021 123.254 100.791 123.077 100.497C122.905 100.204 122.818 99.8675 122.818 99.488C122.818 99.1084 122.905 98.7745 123.077 98.486C123.254 98.1926 123.494 97.9648 123.798 97.8029C124.101 97.641 124.443 97.56 124.822 97.56C125.177 97.56 125.495 97.6334 125.779 97.7801C126.062 97.9269 126.287 98.1445 126.454 98.4329C126.621 98.7213 126.705 99.073 126.705 99.488C126.705 99.9029 126.621 100.255 126.454 100.543C126.287 100.831 126.062 101.052 125.779 101.203C125.495 101.355 125.177 101.431 124.822 101.431ZM124.875 100.953C125.169 100.953 125.43 100.892 125.657 100.771C125.885 100.644 126.065 100.472 126.196 100.255C126.328 100.032 126.394 99.7764 126.394 99.488C126.394 99.1995 126.328 98.9465 126.196 98.7289C126.065 98.5113 125.885 98.3418 125.657 98.2204C125.43 98.0939 125.169 98.0306 124.875 98.0306C124.587 98.0306 124.326 98.0939 124.094 98.2204C123.866 98.3418 123.686 98.5113 123.555 98.7289C123.428 98.9465 123.365 99.1995 123.365 99.488C123.365 99.7764 123.428 100.032 123.555 100.255C123.686 100.472 123.866 100.644 124.094 100.771C124.326 100.892 124.587 100.953 124.875 100.953ZM130.276 101.583V97.598H130.793V98.6834L130.74 98.4936C130.851 98.19 131.038 97.9598 131.301 97.8029C131.564 97.641 131.891 97.56 132.28 97.56V98.0838C132.26 98.0838 132.24 98.0838 132.22 98.0838C132.199 98.0787 132.179 98.0762 132.159 98.0762C131.739 98.0762 131.41 98.2052 131.172 98.4633C130.934 98.7163 130.815 99.0781 130.815 99.5487V101.583H130.276ZM136.779 101.621C136.364 101.621 136 101.535 135.686 101.363C135.372 101.186 135.127 100.945 134.95 100.642C134.773 100.333 134.684 99.9813 134.684 99.5866C134.684 99.1919 134.767 98.8428 134.934 98.5392C135.106 98.2356 135.339 97.9977 135.633 97.8257C135.931 97.6486 136.265 97.56 136.635 97.56C137.009 97.56 137.341 97.6461 137.629 97.8181C137.922 97.9851 138.153 98.2229 138.32 98.5316C138.487 98.8352 138.57 99.1869 138.57 99.5866C138.57 99.6119 138.568 99.6398 138.563 99.6701C138.563 99.6954 138.563 99.7233 138.563 99.7536H135.094V99.3513H138.274L138.062 99.5107C138.062 99.2223 137.998 98.9668 137.872 98.7441C137.75 98.5164 137.583 98.3393 137.371 98.2128C137.158 98.0863 136.913 98.023 136.635 98.023C136.361 98.023 136.116 98.0863 135.898 98.2128C135.681 98.3393 135.511 98.5164 135.39 98.7441C135.268 98.9718 135.208 99.2324 135.208 99.5259V99.6094C135.208 99.913 135.273 100.181 135.405 100.414C135.542 100.642 135.729 100.821 135.967 100.953C136.21 101.079 136.485 101.143 136.794 101.143C137.037 101.143 137.262 101.1 137.47 101.014C137.682 100.928 137.864 100.796 138.016 100.619L138.32 100.968C138.143 101.181 137.92 101.343 137.652 101.454C137.389 101.565 137.098 101.621 136.779 101.621ZM143.219 101.621C142.804 101.621 142.44 101.535 142.126 101.363C141.813 101.186 141.567 100.945 141.39 100.642C141.213 100.333 141.124 99.9813 141.124 99.5866C141.124 99.1919 141.208 98.8428 141.375 98.5392C141.547 98.2356 141.78 97.9977 142.073 97.8257C142.372 97.6486 142.706 97.56 143.075 97.56C143.45 97.56 143.781 97.6461 144.069 97.8181C144.363 97.9851 144.593 98.2229 144.76 98.5316C144.927 98.8352 145.011 99.1869 145.011 99.5866C145.011 99.6119 145.008 99.6398 145.003 99.6701C145.003 99.6954 145.003 99.7233 145.003 99.7536H141.534V99.3513H144.715L144.502 99.5107C144.502 99.2223 144.439 98.9668 144.312 98.7441C144.191 98.5164 144.024 98.3393 143.811 98.2128C143.599 98.0863 143.353 98.023 143.075 98.023C142.802 98.023 142.556 98.0863 142.339 98.2128C142.121 98.3393 141.952 98.5164 141.83 98.7441C141.709 98.9718 141.648 99.2324 141.648 99.5259V99.6094C141.648 99.913 141.714 100.181 141.846 100.414C141.982 100.642 142.169 100.821 142.407 100.953C142.65 101.079 142.926 101.143 143.235 101.143C143.477 101.143 143.703 101.1 143.91 101.014C144.123 100.928 144.305 100.796 144.457 100.619L144.76 100.968C144.583 101.181 144.36 101.343 144.092 101.454C143.829 101.565 143.538 101.621 143.219 101.621ZM150.001 97.56C150.325 97.56 150.609 97.6233 150.852 97.7498C151.099 97.8712 151.292 98.0585 151.428 98.3115C151.57 98.5645 151.641 98.8833 151.641 99.2678V101.583H151.102V99.321C151.102 98.901 150.996 98.5847 150.783 98.3722C150.576 98.1546 150.282 98.0458 149.903 98.0458C149.619 98.0458 149.371 98.104 149.159 98.2204C148.951 98.3317 148.79 98.4962 148.673 98.7138C148.562 98.9263 148.506 99.1844 148.506 99.488V101.583H147.967V97.598H148.483V98.691L148.4 98.486C148.526 98.1976 148.729 97.9724 149.007 97.8105C149.285 97.6435 149.617 97.56 150.001 97.56ZM158.893 101.583V97.097C158.893 96.7428 158.997 96.4569 159.205 96.2393C159.412 96.0217 159.711 95.9129 160.1 95.9129C160.252 95.9129 160.399 95.9332 160.541 95.9737C160.682 96.0141 160.801 96.0774 160.897 96.1634L160.715 96.5657C160.639 96.4999 160.551 96.4518 160.449 96.4215C160.348 96.3861 160.239 96.3684 160.123 96.3684C159.895 96.3684 159.721 96.4316 159.599 96.5581C159.478 96.6846 159.417 96.8718 159.417 97.1198V97.727L159.432 97.9775V101.583H158.893ZM158.18 98.0458V97.598H160.647V98.0458H158.18ZM164.881 101.621C164.542 101.621 164.246 101.558 163.993 101.431C163.74 101.305 163.543 101.115 163.401 100.862C163.264 100.609 163.196 100.293 163.196 99.913V97.598H163.735V99.8523C163.735 100.277 163.839 100.599 164.046 100.816C164.259 101.029 164.555 101.135 164.934 101.135C165.213 101.135 165.453 101.079 165.655 100.968C165.863 100.852 166.02 100.685 166.126 100.467C166.237 100.25 166.293 99.9889 166.293 99.6853V97.598H166.832V101.583H166.316V100.49L166.399 100.687C166.273 100.981 166.075 101.211 165.807 101.378C165.544 101.54 165.235 101.621 164.881 101.621ZM171.453 101.621C171.079 101.621 170.791 101.52 170.588 101.317C170.386 101.115 170.285 100.829 170.285 100.46V96.7175H170.823V100.429C170.823 100.662 170.882 100.842 170.998 100.968C171.119 101.095 171.292 101.158 171.514 101.158C171.752 101.158 171.949 101.09 172.106 100.953L172.296 101.34C172.19 101.436 172.061 101.507 171.909 101.553C171.762 101.598 171.61 101.621 171.453 101.621ZM169.571 98.0458V97.598H172.038V98.0458H169.571ZM176.784 101.621C176.445 101.621 176.149 101.558 175.896 101.431C175.643 101.305 175.445 101.115 175.304 100.862C175.167 100.609 175.099 100.293 175.099 99.913V97.598H175.638V99.8523C175.638 100.277 175.741 100.599 175.949 100.816C176.161 101.029 176.457 101.135 176.837 101.135C177.115 101.135 177.356 101.079 177.558 100.968C177.765 100.852 177.922 100.685 178.029 100.467C178.14 100.25 178.196 99.9889 178.196 99.6853V97.598H178.734V101.583H178.218V100.49L178.302 100.687C178.175 100.981 177.978 101.211 177.71 101.378C177.447 101.54 177.138 101.621 176.784 101.621ZM182.096 101.583V97.598H182.612V98.6834L182.559 98.4936C182.67 98.19 182.858 97.9598 183.121 97.8029C183.384 97.641 183.71 97.56 184.1 97.56V98.0838C184.08 98.0838 184.059 98.0838 184.039 98.0838C184.019 98.0787 183.999 98.0762 183.978 98.0762C183.558 98.0762 183.229 98.2052 182.992 98.4633C182.754 98.7163 182.635 99.0781 182.635 99.5487V101.583H182.096ZM188.598 101.621C188.183 101.621 187.819 101.535 187.505 101.363C187.192 101.186 186.946 100.945 186.769 100.642C186.592 100.333 186.503 99.9813 186.503 99.5866C186.503 99.1919 186.587 98.8428 186.754 98.5392C186.926 98.2356 187.159 97.9977 187.452 97.8257C187.751 97.6486 188.085 97.56 188.454 97.56C188.829 97.56 189.16 97.6461 189.448 97.8181C189.742 97.9851 189.972 98.2229 190.139 98.5316C190.306 98.8352 190.39 99.1869 190.39 99.5866C190.39 99.6119 190.387 99.6398 190.382 99.6701C190.382 99.6954 190.382 99.7233 190.382 99.7536H186.913V99.3513H190.094L189.881 99.5107C189.881 99.2223 189.818 98.9668 189.691 98.7441C189.57 98.5164 189.403 98.3393 189.19 98.2128C188.978 98.0863 188.732 98.023 188.454 98.023C188.181 98.023 187.935 98.0863 187.718 98.2128C187.5 98.3393 187.331 98.5164 187.209 98.7441C187.088 98.9718 187.027 99.2324 187.027 99.5259V99.6094C187.027 99.913 187.093 100.181 187.225 100.414C187.361 100.642 187.548 100.821 187.786 100.953C188.029 101.079 188.305 101.143 188.614 101.143C188.856 101.143 189.082 101.1 189.289 101.014C189.502 100.928 189.684 100.796 189.836 100.619L190.139 100.968C189.962 101.181 189.739 101.343 189.471 101.454C189.208 101.565 188.917 101.621 188.598 101.621Z" fill="#182A50"/>
<path d="M187.3 42.928C185.879 46.3699 186.147 50.0987 186.458 51.5329C187.425 51.0028 189.713 49.0823 191.135 45.6404C192.557 42.1984 192.476 38.9061 192.257 37.6902C191.197 38.002 188.722 39.486 187.3 42.928Z" fill="#32CD8B"/>
<path d="M190.668 49.7561C188.722 50.3547 187.55 51.9385 187.207 52.6556C188.08 52.6556 190.181 52.4685 191.603 51.7202C193.025 50.972 194.128 49.8496 194.502 49.382C194.035 49.2572 192.613 49.1575 190.668 49.7561Z" fill="#32CD8B"/>
<path d="M182.062 46.9499C182.586 48.6708 184.338 50.847 185.149 51.72C185.523 50.3794 185.804 47.4175 185.055 44.9857C184.458 43.0428 182.374 41.1821 181.501 40.5897C181.501 41.8992 181.221 44.184 182.062 46.9499Z" fill="#32CD8B"/>
<defs>
<linearGradient id="paint0_linear_795_1994" x1="47.5094" y1="15.4705" x2="76.0886" y2="91.824" gradientUnits="userSpaceOnUse">
<stop offset="0.255208" stop-color="#178270"/>
<stop offset="0.924512" stop-color="#182A50"/>
</linearGradient>
<linearGradient id="paint1_linear_795_1994" x1="65.1348" y1="48.3195" x2="51.5917" y2="66.2349" gradientUnits="userSpaceOnUse">
<stop stop-color="#178270"/>
<stop offset="0.962921" stop-color="#182A50"/>
</linearGradient>
<linearGradient id="paint2_linear_795_1994" x1="35.596" y1="18.8871" x2="35.596" y2="90.7618" gradientUnits="userSpaceOnUse">
<stop stop-color="#178270"/>
<stop offset="1" stop-color="#182A50"/>
</linearGradient>
<linearGradient id="paint3_linear_795_1994" x1="55.0051" y1="17.7391" x2="55.0051" y2="38.722" gradientUnits="userSpaceOnUse">
<stop stop-color="#178270"/>
<stop offset="0.390625" stop-color="#182A50"/>
</linearGradient>
</defs>
</svg>
