<svg width="100" height="51" viewBox="0 0 100 51" fill="none" xmlns="http://www.w3.org/2000/svg">
<path d="M13.1367 31.6639V29.1682L16.9784 29.7448C17.0433 29.8511 18.5842 32.2015 23.2077 39.4954C23.2108 39.498 23.2124 39.5005 23.2124 39.5029C23.2108 39.5004 23.2092 39.4979 23.2077 39.4954C23.0587 39.3718 19.4403 38.9885 17.4885 38.801L15.2489 34.982L13.1367 31.6639Z" fill="#182A50"/>
<path d="M33.5427 24.2217C33.6924 25.7278 33.7077 27.2322 33.6703 29.1055C33.6703 29.4729 32.7639 29.5363 32.3898 29.5363C32.0157 29.5363 14.2841 29.5438 14.2841 29.5438C14.1345 29.5438 13.1362 29.6691 13.1362 30.4204C13.1362 31.6693 13.4928 34.3746 14.3479 35.5017C15.155 36.5654 15.8736 37.48 17.0697 38.0968C18.7732 38.9753 19.9174 39.1426 21.8397 39.0585C24.6704 38.9347 26.7406 37.6877 28.2371 35.447C28.4242 35.0797 28.9513 35.179 28.9513 35.179L33.5427 35.3042C33.6703 35.5547 32.4834 37.8347 32.3337 38.0918C31.6967 39.1863 29.7897 41.0488 27.8443 42.0039C25.9363 42.9589 23.7664 43.4364 21.3346 43.4364C18.6036 43.4364 16.3027 42.8487 14.4321 41.6733C11.4782 39.8171 9.98801 37.6305 9.5856 36.6592C8.68771 34.4919 8.23877 30.8637 8.23877 27.7781C8.23877 25.0966 8.54479 22.7641 8.85607 21.6621C9.86879 18.7988 10.9767 17.1032 13.5342 15.4058C15.9983 13.7704 17.9115 13.4456 20.8857 13.4522C24.4258 13.4601 27.6164 14.3889 29.487 16.2623C31.3576 18.099 33.1312 20.6219 33.5427 24.2217ZM20.8857 17.3994C19.277 17.3994 17.2448 18.0915 16.1972 18.8996C15.1497 19.671 13.893 21.0835 13.5189 22.4059C13.257 23.2141 13.2111 24.6633 13.1362 25.9123C13.1362 26.0592 14.3386 26.06 14.4883 26.06H27.3392C27.4889 26.06 29.0942 26.1118 29.0942 25.9649C29.0194 24.7527 29.1426 23.846 28.7575 22.7641C28.3834 21.3315 26.7576 19.1809 25.6352 18.3361C24.5503 17.4545 21.7452 17.3994 20.8857 17.3994Z" fill="url(#paint0_linear_600_1392)"/>
<path d="M25.5719 18.7744L21.5544 17.71C20.0909 21.6174 18.4633 23.6104 15.2411 25.8497L13.7107 24.1591L12.8179 28.9177L18.7485 30.17C18.3234 29.6691 17.6006 28.3542 17.6006 28.3542C17.6006 28.3542 23.7863 26.0375 25.5719 18.7744Z" fill="url(#paint1_linear_600_1392)"/>
<path d="M21.5544 17.71L21.6191 17.4656L21.3177 17.6213L21.5544 17.71ZM25.5719 18.7744L25.8174 18.8347L25.6366 18.5301L25.5719 18.7744ZM17.6006 28.3542L17.512 28.1175L17.2384 28.22L17.3791 28.476L17.6006 28.3542ZM18.7485 30.17L18.6963 30.4173L19.4195 30.57L18.9412 30.0064L18.7485 30.17ZM12.8179 28.9177L12.5694 28.8711L12.5239 29.114L12.7657 29.165L12.8179 28.9177ZM13.7107 24.1591L13.898 23.9895L13.5562 23.6119L13.4622 24.1125L13.7107 24.1591ZM15.2411 25.8497L15.0538 26.0193L15.2029 26.184L15.3854 26.0572L15.2411 25.8497ZM21.4897 17.9543L25.5072 19.0187L25.6366 18.5301L21.6191 17.4656L21.4897 17.9543ZM25.3265 18.714C24.4492 22.2823 22.4925 24.6336 20.7541 26.0945C19.8845 26.8252 19.07 27.3326 18.4743 27.6567C18.1765 27.8187 17.9337 27.9348 17.7664 28.0099C17.6827 28.0475 17.618 28.0748 17.5747 28.0925C17.5531 28.1014 17.5368 28.1078 17.5263 28.112C17.521 28.1141 17.5171 28.1155 17.5147 28.1165C17.5135 28.1169 17.5127 28.1172 17.5122 28.1174C17.512 28.1175 17.5119 28.1175 17.5118 28.1176C17.5118 28.1176 17.5119 28.1176 17.5118 28.1176C17.5119 28.1175 17.512 28.1175 17.6006 28.3542C17.6893 28.5909 17.6894 28.5909 17.6896 28.5908C17.6897 28.5908 17.6898 28.5907 17.69 28.5906C17.6903 28.5905 17.6908 28.5903 17.6913 28.5901C17.6923 28.5898 17.6937 28.5892 17.6955 28.5885C17.6991 28.5872 17.7041 28.5852 17.7106 28.5827C17.7236 28.5776 17.7423 28.5702 17.7664 28.5603C17.8146 28.5405 17.8845 28.511 17.9735 28.471C18.1514 28.3911 18.4058 28.2694 18.7158 28.1008C19.3357 27.7635 20.1793 27.2378 21.0793 26.4815C22.8801 24.9682 24.909 22.5296 25.8174 18.8347L25.3265 18.714ZM17.6006 28.3542C17.3791 28.476 17.3791 28.476 17.3792 28.476C17.3792 28.476 17.3792 28.476 17.3792 28.476C17.3792 28.4761 17.3793 28.4762 17.3793 28.4763C17.3794 28.4765 17.3796 28.4767 17.3797 28.4771C17.3801 28.4777 17.3807 28.4787 17.3814 28.48C17.3828 28.4827 17.3849 28.4865 17.3877 28.4915C17.3932 28.5015 17.4013 28.5161 17.4118 28.5348C17.4326 28.5722 17.4628 28.6261 17.5004 28.6922C17.5754 28.8245 17.68 29.0062 17.7982 29.2039C18.0308 29.5932 18.3277 30.0648 18.5558 30.3335L18.9412 30.0064C18.7442 29.7743 18.4671 29.3379 18.2321 28.9446C18.1164 28.751 18.0138 28.5727 17.94 28.4427C17.9032 28.3778 17.8736 28.325 17.8533 28.2886C17.8431 28.2704 17.8353 28.2562 17.83 28.2467C17.8274 28.2419 17.8254 28.2383 17.8241 28.2359C17.8234 28.2347 17.8229 28.2338 17.8226 28.2333C17.8224 28.233 17.8223 28.2328 17.8222 28.2326C17.8222 28.2325 17.8222 28.2325 17.8222 28.2325C17.8221 28.2325 17.8221 28.2325 17.8221 28.2324C17.8221 28.2324 17.8221 28.2325 17.6006 28.3542ZM18.8007 29.9227L12.8701 28.6704L12.7657 29.165L18.6963 30.4173L18.8007 29.9227ZM13.0663 28.9643L13.9591 24.2057L13.4622 24.1125L12.5694 28.8711L13.0663 28.9643ZM13.5233 24.3288L15.0538 26.0193L15.4285 25.68L13.898 23.9895L13.5233 24.3288ZM15.3854 26.0572C17.0091 24.9288 18.243 23.8542 19.2562 22.5613C20.2695 21.2684 21.0534 19.7682 21.7911 17.7986L21.3177 17.6213C20.5919 19.5592 19.8303 21.0092 18.8583 22.2495C17.8864 23.4897 16.6953 24.5313 15.0969 25.6421L15.3854 26.0572Z" fill="white"/>
<path d="M7.33894 43.1935H2.81212V5.49372H0L5.41847 0.992249C6.97314 2.49274 10.055 5.49372 9.9453 5.49372C9.80812 5.49372 7.33894 5.4312 7.33894 5.49372V43.1935Z" fill="url(#paint2_linear_600_1392)"/>
<path d="M21.7453 9.69548C20.5008 5.04707 15.7509 3.74722 10.5217 5.18732L6.12158 0.804404C16.3248 -1.5749 25.5077 1.30531 25.8904 9.69548L27.6121 9.63286L23.9772 13.0766L19.6409 9.75809L21.7453 9.69548Z" fill="url(#paint3_linear_600_1392)"/>
<path d="M41.6433 31.2722C40.95 31.2722 40.3086 31.1595 39.7192 30.9342C39.1385 30.7002 38.6314 30.3752 38.1981 29.9591C37.7734 29.5431 37.4397 29.0534 37.197 28.49C36.963 27.9266 36.846 27.3113 36.846 26.6439C36.846 25.9765 36.963 25.3611 37.197 24.7977C37.4397 24.2344 37.7777 23.7446 38.2111 23.3286C38.6444 22.9126 39.1515 22.5919 39.7322 22.3665C40.3216 22.1325 40.963 22.0155 41.6563 22.0155C42.3497 22.0155 42.9824 22.1239 43.5545 22.3405C44.1352 22.5572 44.6292 22.8866 45.0366 23.3286L44.4386 23.9397C44.0572 23.5583 43.6368 23.2853 43.1775 23.1206C42.7181 22.9559 42.224 22.8736 41.6953 22.8736C41.132 22.8736 40.6119 22.9689 40.1352 23.1596C39.6672 23.3416 39.2555 23.606 38.9001 23.9527C38.5534 24.2907 38.2804 24.6894 38.0811 25.1488C37.8904 25.5995 37.795 26.0978 37.795 26.6439C37.795 27.1812 37.8904 27.6796 38.0811 28.139C38.2804 28.5983 38.5534 29.0014 38.9001 29.3481C39.2555 29.6861 39.6672 29.9505 40.1352 30.1411C40.6119 30.3231 41.1276 30.4142 41.6823 30.4142C42.2024 30.4142 42.6921 30.3361 43.1515 30.1801C43.6195 30.0241 44.0485 29.7598 44.4386 29.3871L44.9846 30.1151C44.5512 30.4965 44.0442 30.7868 43.4635 30.9862C42.8828 31.1769 42.2761 31.2722 41.6433 31.2722ZM44.0615 29.9981V26.6439H44.9846V30.1151L44.0615 29.9981ZM50.8277 31.1942V22.0935H54.234C55.0054 22.0935 55.6684 22.2192 56.2231 22.4705C56.7778 22.7132 57.2025 23.0686 57.4972 23.5366C57.8006 23.996 57.9523 24.555 57.9523 25.2138C57.9523 25.8551 57.8006 26.4098 57.4972 26.8779C57.2025 27.3373 56.7778 27.6926 56.2231 27.944C55.6684 28.1867 55.0054 28.308 54.234 28.308H51.3608L51.7898 27.866V31.1942H50.8277ZM57.0422 31.1942L54.702 27.892H55.7421L58.0953 31.1942H57.0422ZM51.7898 27.944L51.3608 27.4889H54.208C55.1181 27.4889 55.8071 27.2896 56.2751 26.8909C56.7518 26.4922 56.9902 25.9331 56.9902 25.2138C56.9902 24.4857 56.7518 23.9223 56.2751 23.5236C55.8071 23.1249 55.1181 22.9256 54.208 22.9256H51.3608L51.7898 22.4705V27.944ZM64.2013 26.1628H69.0116V26.9819H64.2013V26.1628ZM64.3053 30.3622H69.7787V31.1942H63.3432V22.0935H69.5837V22.9256H64.3053V30.3622ZM76.0185 26.1628H80.8288V26.9819H76.0185V26.1628ZM76.1225 30.3622H81.5959V31.1942H75.1604V22.0935H81.4009V22.9256H76.1225V30.3622ZM86.9776 31.1942V22.0935H87.7706L94.0501 29.9981H93.6341V22.0935H94.5832V31.1942H93.7901L87.5236 23.2896H87.9397V31.1942H86.9776Z" fill="#182A50"/>
<path d="M38.1444 38.0979H40.7446V38.5406H38.1444V38.0979ZM38.2006 40.3678H41.1592V40.8176H37.6805V35.8983H41.0538V36.348H38.2006V40.3678ZM46.3314 40.8597C45.9613 40.8597 45.6193 40.7988 45.3054 40.677C44.9915 40.5505 44.7198 40.3748 44.4902 40.1499C44.2606 39.9251 44.0802 39.6604 43.9491 39.3558C43.8226 39.0513 43.7593 38.7187 43.7593 38.3579C43.7593 37.9972 43.8226 37.6645 43.9491 37.36C44.0802 37.0555 44.2606 36.7908 44.4902 36.5659C44.7244 36.341 44.9985 36.1677 45.3124 36.0459C45.6263 35.9194 45.9683 35.8561 46.3384 35.8561C46.6945 35.8561 47.0295 35.917 47.3434 36.0388C47.6573 36.1559 47.922 36.334 48.1375 36.5729L47.8072 36.9032C47.6057 36.6971 47.3832 36.5495 47.1396 36.4605C46.896 36.3668 46.6336 36.3199 46.3525 36.3199C46.0573 36.3199 45.7833 36.3715 45.5303 36.4745C45.2773 36.5729 45.0571 36.7158 44.8697 36.9032C44.6823 37.0859 44.5347 37.3014 44.4269 37.5497C44.3239 37.7934 44.2723 38.0628 44.2723 38.3579C44.2723 38.6531 44.3239 38.9248 44.4269 39.1731C44.5347 39.4167 44.6823 39.6323 44.8697 39.8197C45.0571 40.0024 45.2773 40.1453 45.5303 40.2483C45.7833 40.3467 46.0573 40.3959 46.3525 40.3959C46.6336 40.3959 46.896 40.3491 47.1396 40.2554C47.3832 40.1617 47.6057 40.0117 47.8072 39.8056L48.1375 40.1359C47.922 40.3748 47.6573 40.5552 47.3434 40.677C47.0295 40.7988 46.6922 40.8597 46.3314 40.8597ZM53.1207 40.8597C52.7506 40.8597 52.4063 40.7988 52.0877 40.677C51.7738 40.5505 51.4997 40.3748 51.2655 40.1499C51.0359 39.9204 50.8555 39.6557 50.7244 39.3558C50.5979 39.0513 50.5346 38.7187 50.5346 38.3579C50.5346 37.9972 50.5979 37.6669 50.7244 37.367C50.8555 37.0625 51.0359 36.7978 51.2655 36.5729C51.4997 36.3434 51.7738 36.1677 52.0877 36.0459C52.4016 35.9194 52.7459 35.8561 53.1207 35.8561C53.4909 35.8561 53.8329 35.9194 54.1468 36.0459C54.4607 36.1677 54.7324 36.341 54.962 36.5659C55.1962 36.7908 55.3766 37.0555 55.5031 37.36C55.6343 37.6645 55.6999 37.9972 55.6999 38.3579C55.6999 38.7187 55.6343 39.0513 55.5031 39.3558C55.3766 39.6604 55.1962 39.9251 54.962 40.1499C54.7324 40.3748 54.4607 40.5505 54.1468 40.677C53.8329 40.7988 53.4909 40.8597 53.1207 40.8597ZM53.1207 40.3959C53.4159 40.3959 53.6876 40.3467 53.9359 40.2483C54.1889 40.1453 54.4068 40.0024 54.5895 39.8197C54.7769 39.6323 54.9221 39.4167 55.0252 39.1731C55.1283 38.9248 55.1798 38.6531 55.1798 38.3579C55.1798 38.0628 55.1283 37.7934 55.0252 37.5497C54.9221 37.3014 54.7769 37.0859 54.5895 36.9032C54.4068 36.7158 54.1889 36.5729 53.9359 36.4745C53.6876 36.3715 53.4159 36.3199 53.1207 36.3199C52.8256 36.3199 52.5515 36.3715 52.2985 36.4745C52.0455 36.5729 51.8253 36.7158 51.6379 36.9032C51.4552 37.0859 51.31 37.3014 51.2022 37.5497C51.0992 37.7934 51.0476 38.0628 51.0476 38.3579C51.0476 38.6484 51.0992 38.9178 51.2022 39.1661C51.31 39.4144 51.4552 39.6323 51.6379 39.8197C51.8253 40.0024 52.0455 40.1453 52.2985 40.2483C52.5515 40.3467 52.8256 40.3959 53.1207 40.3959ZM60.049 40.8597C59.6836 40.8597 59.3322 40.8012 58.9949 40.684C58.6622 40.5622 58.4045 40.4076 58.2218 40.2202L58.4256 39.8197C58.599 39.9883 58.8309 40.1312 59.1214 40.2483C59.4165 40.3608 59.7257 40.417 60.049 40.417C60.3582 40.417 60.6089 40.3795 60.8009 40.3046C60.9977 40.2249 61.1406 40.1195 61.2296 39.9883C61.3233 39.8571 61.3702 39.7119 61.3702 39.5526C61.3702 39.3605 61.314 39.2059 61.2015 39.0888C61.0938 38.9717 60.9509 38.8803 60.7728 38.8147C60.5948 38.7444 60.398 38.6835 60.1825 38.632C59.967 38.5805 59.7515 38.5266 59.536 38.4704C59.3205 38.4095 59.1214 38.3298 58.9386 38.2314C58.7606 38.133 58.6154 38.0042 58.5029 37.8449C58.3952 37.6809 58.3413 37.4678 58.3413 37.2054C58.3413 36.9618 58.4045 36.7392 58.531 36.5378C58.6622 36.3316 58.8613 36.1677 59.1284 36.0459C59.3954 35.9194 59.7374 35.8561 60.1544 35.8561C60.4308 35.8561 60.7049 35.8959 60.9766 35.9756C61.2484 36.0505 61.4826 36.1559 61.6794 36.2918L61.5037 36.7064C61.2929 36.5659 61.068 36.4628 60.8291 36.3972C60.5948 36.3316 60.3676 36.2988 60.1474 36.2988C59.8522 36.2988 59.6086 36.3387 59.4165 36.4183C59.2244 36.498 59.0815 36.6057 58.9878 36.7416C58.8988 36.8728 58.8543 37.0227 58.8543 37.1913C58.8543 37.3834 58.9082 37.538 59.0159 37.6552C59.1284 37.7723 59.2736 37.8636 59.4516 37.9292C59.6344 37.9948 59.8335 38.0534 60.049 38.1049C60.2645 38.1565 60.4777 38.2127 60.6885 38.2736C60.904 38.3345 61.1008 38.4141 61.2788 38.5125C61.4615 38.6062 61.6068 38.7327 61.7145 38.892C61.827 39.0513 61.8832 39.2598 61.8832 39.5175C61.8832 39.7564 61.8176 39.9789 61.6864 40.1851C61.5552 40.3865 61.3538 40.5505 61.082 40.677C60.815 40.7988 60.4706 40.8597 60.049 40.8597ZM65.9141 40.8176V38.9904L66.0336 39.3137L63.9464 35.8983H64.5016L66.3358 38.899H66.0406L67.8748 35.8983H68.3948L66.3076 39.3137L66.4271 38.9904V40.8176H65.9141ZM72.2819 40.8597C71.9165 40.8597 71.5651 40.8012 71.2278 40.684C70.8951 40.5622 70.6374 40.4076 70.4547 40.2202L70.6585 39.8197C70.8319 39.9883 71.0638 40.1312 71.3543 40.2483C71.6494 40.3608 71.9586 40.417 72.2819 40.417C72.5911 40.417 72.8418 40.3795 73.0338 40.3046C73.2306 40.2249 73.3735 40.1195 73.4625 39.9883C73.5562 39.8571 73.6031 39.7119 73.6031 39.5526C73.6031 39.3605 73.5469 39.2059 73.4344 39.0888C73.3267 38.9717 73.1838 38.8803 73.0057 38.8147C72.8277 38.7444 72.6309 38.6835 72.4154 38.632C72.1999 38.5805 71.9844 38.5266 71.7689 38.4704C71.5534 38.4095 71.3543 38.3298 71.1715 38.2314C70.9935 38.133 70.8483 38.0042 70.7358 37.8449C70.6281 37.6809 70.5742 37.4678 70.5742 37.2054C70.5742 36.9618 70.6374 36.7392 70.7639 36.5378C70.8951 36.3316 71.0942 36.1677 71.3613 36.0459C71.6283 35.9194 71.9703 35.8561 72.3873 35.8561C72.6637 35.8561 72.9378 35.8959 73.2095 35.9756C73.4813 36.0505 73.7155 36.1559 73.9123 36.2918L73.7366 36.7064C73.5258 36.5659 73.3009 36.4628 73.062 36.3972C72.8277 36.3316 72.6005 36.2988 72.3803 36.2988C72.0851 36.2988 71.8415 36.3387 71.6494 36.4183C71.4573 36.498 71.3144 36.6057 71.2207 36.7416C71.1317 36.8728 71.0872 37.0227 71.0872 37.1913C71.0872 37.3834 71.1411 37.538 71.2488 37.6552C71.3613 37.7723 71.5065 37.8636 71.6846 37.9292C71.8673 37.9948 72.0664 38.0534 72.2819 38.1049C72.4974 38.1565 72.7106 38.2127 72.9214 38.2736C73.1369 38.3345 73.3337 38.4141 73.5117 38.5125C73.6944 38.6062 73.8397 38.7327 73.9474 38.892C74.0599 39.0513 74.1161 39.2598 74.1161 39.5175C74.1161 39.7564 74.0505 39.9789 73.9193 40.1851C73.7881 40.3865 73.5867 40.5505 73.3149 40.677C73.0479 40.7988 72.7035 40.8597 72.2819 40.8597ZM77.9635 40.8176V36.348H76.2347V35.8983H80.2123V36.348H78.4835V40.8176H77.9635ZM83.334 38.0979H85.9342V38.5406H83.334V38.0979ZM83.3903 40.3678H86.3489V40.8176H82.8702V35.8983H86.2435V36.348H83.3903V40.3678ZM89.3985 40.8176V35.8983H89.8271L92.076 39.7353H91.8511L94.0788 35.8983H94.5075V40.8176H94.0085V36.6783H94.128L92.076 40.1921H91.83L89.7639 36.6783H89.8974V40.8176H89.3985Z" fill="#182A50"/>
<path d="M5.07142 49.4639C4.83454 49.4639 4.61566 49.4249 4.41476 49.347C4.21387 49.266 4.03996 49.1536 3.89304 49.0096C3.74612 48.8657 3.63068 48.6963 3.54672 48.5014C3.46576 48.3065 3.42528 48.0936 3.42528 47.8627C3.42528 47.6319 3.46576 47.419 3.54672 47.2241C3.63068 47.0292 3.74612 46.8598 3.89304 46.7158C4.04296 46.5719 4.21837 46.461 4.41926 46.383C4.62016 46.3021 4.83904 46.2616 5.07592 46.2616C5.3038 46.2616 5.51819 46.3006 5.71908 46.3785C5.91997 46.4535 6.08939 46.5674 6.22731 46.7203L6.01592 46.9317C5.88699 46.7998 5.74457 46.7054 5.58865 46.6484C5.43273 46.5884 5.26482 46.5584 5.08491 46.5584C4.89601 46.5584 4.7206 46.5914 4.55869 46.6574C4.39677 46.7203 4.25585 46.8118 4.13591 46.9317C4.01597 47.0487 3.92152 47.1866 3.85256 47.3455C3.78659 47.5014 3.75361 47.6738 3.75361 47.8627C3.75361 48.0516 3.78659 48.2256 3.85256 48.3845C3.92152 48.5404 4.01597 48.6783 4.13591 48.7983C4.25585 48.9152 4.39677 49.0066 4.55869 49.0726C4.7206 49.1356 4.89601 49.1671 5.08491 49.1671C5.26482 49.1671 5.43273 49.1371 5.58865 49.0771C5.74457 49.0171 5.88699 48.9212 6.01592 48.7893L6.22731 49.0006C6.08939 49.1536 5.91997 49.269 5.71908 49.347C5.51819 49.4249 5.3023 49.4639 5.07142 49.4639ZM8.82835 49.4594C8.60047 49.4594 8.39508 49.4084 8.21218 49.3065C8.03227 49.2015 7.88985 49.0591 7.7849 48.8792C7.67996 48.6963 7.62748 48.4879 7.62748 48.254C7.62748 48.0172 7.67996 47.8088 7.7849 47.6289C7.88985 47.449 8.03227 47.308 8.21218 47.2061C8.39208 47.1041 8.59748 47.0532 8.82835 47.0532C9.06223 47.0532 9.26912 47.1041 9.44903 47.2061C9.63193 47.308 9.77436 47.449 9.8763 47.6289C9.98125 47.8088 10.0337 48.0172 10.0337 48.254C10.0337 48.4879 9.98125 48.6963 9.8763 48.8792C9.77436 49.0591 9.63193 49.2015 9.44903 49.3065C9.26613 49.4084 9.05923 49.4594 8.82835 49.4594ZM8.82835 49.1761C8.99926 49.1761 9.15069 49.1386 9.28262 49.0636C9.41455 48.9857 9.51799 48.8777 9.59295 48.7398C9.67091 48.5989 9.70989 48.4369 9.70989 48.254C9.70989 48.0681 9.67091 47.9062 9.59295 47.7683C9.51799 47.6304 9.41455 47.5239 9.28262 47.449C9.15069 47.371 9.00076 47.332 8.83285 47.332C8.66494 47.332 8.51502 47.371 8.38309 47.449C8.25116 47.5239 8.14621 47.6304 8.06825 47.7683C7.99029 47.9062 7.95131 48.0681 7.95131 48.254C7.95131 48.4369 7.99029 48.5989 8.06825 48.7398C8.14621 48.8777 8.25116 48.9857 8.38309 49.0636C8.51502 49.1386 8.66344 49.1761 8.82835 49.1761ZM14.738 47.0532C14.9299 47.0532 15.0964 47.0907 15.2373 47.1656C15.3812 47.2376 15.4921 47.3485 15.5701 47.4984C15.6511 47.6484 15.6915 47.8373 15.6915 48.0651V49.4369H15.3722V48.0966C15.3722 47.8478 15.3122 47.6604 15.1923 47.5344C15.0754 47.4055 14.909 47.341 14.6931 47.341C14.5312 47.341 14.3902 47.3755 14.2703 47.4445C14.1534 47.5104 14.0619 47.6079 13.9959 47.7368C13.933 47.8627 13.9015 48.0157 13.9015 48.1956V49.4369H13.5822V48.0966C13.5822 47.8478 13.5222 47.6604 13.4022 47.5344C13.2823 47.4055 13.1144 47.341 12.8985 47.341C12.7396 47.341 12.6002 47.3755 12.4802 47.4445C12.3603 47.5104 12.2673 47.6079 12.2014 47.7368C12.1384 47.8627 12.1069 48.0157 12.1069 48.1956V49.4369H11.7876V47.0757H12.0934V47.7143L12.044 47.6019C12.1159 47.431 12.2314 47.2975 12.3903 47.2016C12.5522 47.1026 12.7426 47.0532 12.9615 47.0532C13.1924 47.0532 13.3888 47.1116 13.5507 47.2286C13.7126 47.3425 13.8175 47.5149 13.8655 47.7458L13.7396 47.6963C13.8085 47.5044 13.93 47.35 14.1039 47.2331C14.2808 47.1131 14.4922 47.0532 14.738 47.0532ZM20.6099 47.0532C20.8018 47.0532 20.9682 47.0907 21.1092 47.1656C21.2531 47.2376 21.364 47.3485 21.442 47.4984C21.5229 47.6484 21.5634 47.8373 21.5634 48.0651V49.4369H21.2441V48.0966C21.2441 47.8478 21.1841 47.6604 21.0642 47.5344C20.9472 47.4055 20.7808 47.341 20.5649 47.341C20.403 47.341 20.2621 47.3755 20.1422 47.4445C20.0252 47.5104 19.9338 47.6079 19.8678 47.7368C19.8048 47.8627 19.7734 48.0157 19.7734 48.1956V49.4369H19.454V48.0966C19.454 47.8478 19.3941 47.6604 19.2741 47.5344C19.1542 47.4055 18.9863 47.341 18.7704 47.341C18.6115 47.341 18.472 47.3755 18.3521 47.4445C18.2322 47.5104 18.1392 47.6079 18.0733 47.7368C18.0103 47.8627 17.9788 48.0157 17.9788 48.1956V49.4369H17.6595V47.0757H17.9653V47.7143L17.9158 47.6019C17.9878 47.431 18.1032 47.2975 18.2622 47.2016C18.4241 47.1026 18.6145 47.0532 18.8334 47.0532C19.0642 47.0532 19.2606 47.1116 19.4225 47.2286C19.5845 47.3425 19.6894 47.5149 19.7374 47.7458L19.6114 47.6963C19.6804 47.5044 19.8018 47.35 19.9758 47.2331C20.1527 47.1131 20.3641 47.0532 20.6099 47.0532ZM23.5314 49.4369V47.0757H23.8507V49.4369H23.5314ZM23.6933 46.5539C23.6273 46.5539 23.5718 46.5314 23.5269 46.4865C23.4819 46.4415 23.4594 46.3875 23.4594 46.3246C23.4594 46.2616 23.4819 46.2091 23.5269 46.1671C23.5718 46.1222 23.6273 46.0997 23.6933 46.0997C23.7592 46.0997 23.8147 46.1207 23.8597 46.1626C23.9047 46.2046 23.9271 46.2571 23.9271 46.3201C23.9271 46.386 23.9047 46.4415 23.8597 46.4865C23.8177 46.5314 23.7622 46.5539 23.6933 46.5539ZM26.5877 49.4594C26.3659 49.4594 26.1949 49.3994 26.075 49.2795C25.9551 49.1596 25.8951 48.9902 25.8951 48.7713V46.5539H26.2144V48.7533C26.2144 48.8912 26.2489 48.9977 26.3179 49.0726C26.3898 49.1476 26.4918 49.1851 26.6237 49.1851C26.7647 49.1851 26.8816 49.1446 26.9745 49.0636L27.087 49.293C27.024 49.35 26.9476 49.3919 26.8576 49.4189C26.7706 49.4459 26.6807 49.4594 26.5877 49.4594ZM25.4723 47.341V47.0757H26.9341V47.341H25.4723ZM29.4553 49.4594C29.2335 49.4594 29.0625 49.3994 28.9426 49.2795C28.8227 49.1596 28.7627 48.9902 28.7627 48.7713V46.5539H29.082V48.7533C29.082 48.8912 29.1165 48.9977 29.1855 49.0726C29.2574 49.1476 29.3594 49.1851 29.4913 49.1851C29.6322 49.1851 29.7492 49.1446 29.8421 49.0636L29.9546 49.293C29.8916 49.35 29.8152 49.3919 29.7252 49.4189C29.6382 49.4459 29.5483 49.4594 29.4553 49.4594ZM28.3399 47.341V47.0757H29.8017V47.341H28.3399ZM32.5573 49.4594C32.3115 49.4594 32.0956 49.4084 31.9097 49.3065C31.7238 49.2015 31.5784 49.0591 31.4734 48.8792C31.3685 48.6963 31.316 48.4879 31.316 48.254C31.316 48.0202 31.3655 47.8133 31.4644 47.6334C31.5664 47.4535 31.7043 47.3125 31.8782 47.2106C32.0551 47.1056 32.253 47.0532 32.4719 47.0532C32.6938 47.0532 32.8902 47.1041 33.0611 47.2061C33.235 47.305 33.3714 47.446 33.4704 47.6289C33.5693 47.8088 33.6188 48.0172 33.6188 48.254C33.6188 48.269 33.6173 48.2855 33.6143 48.3035C33.6143 48.3185 33.6143 48.335 33.6143 48.353H31.5589V48.1146H33.4434L33.3174 48.2091C33.3174 48.0382 33.28 47.8867 33.205 47.7548C33.133 47.6199 33.0341 47.5149 32.9082 47.44C32.7822 47.365 32.6368 47.3275 32.4719 47.3275C32.31 47.3275 32.1645 47.365 32.0356 47.44C31.9067 47.5149 31.8062 47.6199 31.7343 47.7548C31.6623 47.8897 31.6263 48.0442 31.6263 48.2181V48.2675C31.6263 48.4474 31.6653 48.6064 31.7433 48.7443C31.8242 48.8792 31.9352 48.9857 32.0761 49.0636C32.22 49.1386 32.3834 49.1761 32.5663 49.1761C32.7103 49.1761 32.8437 49.1506 32.9666 49.0996C33.0926 49.0486 33.2005 48.9707 33.2905 48.8657L33.4704 49.0726C33.3654 49.1985 33.2335 49.2945 33.0746 49.3605C32.9187 49.4264 32.7462 49.4594 32.5573 49.4594ZM36.3107 49.4594C36.0858 49.4594 35.8834 49.4084 35.7035 49.3065C35.5266 49.2045 35.3872 49.0636 35.2852 48.8837C35.1833 48.7008 35.1323 48.4909 35.1323 48.254C35.1323 48.0142 35.1833 47.8043 35.2852 47.6244C35.3872 47.4445 35.5266 47.305 35.7035 47.2061C35.8834 47.1041 36.0858 47.0532 36.3107 47.0532C36.5176 47.0532 36.702 47.0996 36.8639 47.1926C37.0288 47.2855 37.1592 47.422 37.2552 47.6019C37.3541 47.7788 37.4036 47.9962 37.4036 48.254C37.4036 48.5089 37.3556 48.7263 37.2597 48.9062C37.1637 49.0861 37.0333 49.224 36.8684 49.32C36.7065 49.4129 36.5206 49.4594 36.3107 49.4594ZM36.3332 49.1761C36.5011 49.1761 36.651 49.1386 36.7829 49.0636C36.9179 48.9857 37.0228 48.8777 37.0978 48.7398C37.1757 48.5989 37.2147 48.4369 37.2147 48.254C37.2147 48.0681 37.1757 47.9062 37.0978 47.7683C37.0228 47.6304 36.9179 47.5239 36.7829 47.449C36.651 47.371 36.5011 47.332 36.3332 47.332C36.1683 47.332 36.0198 47.371 35.8879 47.449C35.756 47.5239 35.651 47.6304 35.5731 47.7683C35.4951 47.9062 35.4561 48.0681 35.4561 48.254C35.4561 48.4369 35.4951 48.5989 35.5731 48.7398C35.651 48.8777 35.756 48.9857 35.8879 49.0636C36.0198 49.1386 36.1683 49.1761 36.3332 49.1761ZM37.2237 49.4369V48.7263L37.2552 48.2495L37.2102 47.7728V46.0997H37.5296V49.4369H37.2237ZM42.5465 49.4594C42.3246 49.4594 42.1537 49.3994 42.0337 49.2795C41.9138 49.1596 41.8538 48.9902 41.8538 48.7713V46.5539H42.1732V48.7533C42.1732 48.8912 42.2076 48.9977 42.2766 49.0726C42.3486 49.1476 42.4505 49.1851 42.5824 49.1851C42.7234 49.1851 42.8403 49.1446 42.9333 49.0636L43.0457 49.293C42.9827 49.35 42.9063 49.3919 42.8163 49.4189C42.7294 49.4459 42.6394 49.4594 42.5465 49.4594ZM41.431 47.341V47.0757H42.8928V47.341H41.431ZM45.608 49.4594C45.3801 49.4594 45.1747 49.4084 44.9918 49.3065C44.8119 49.2015 44.6695 49.0591 44.5645 48.8792C44.4596 48.6963 44.4071 48.4879 44.4071 48.254C44.4071 48.0172 44.4596 47.8088 44.5645 47.6289C44.6695 47.449 44.8119 47.308 44.9918 47.2061C45.1717 47.1041 45.3771 47.0532 45.608 47.0532C45.8419 47.0532 46.0488 47.1041 46.2287 47.2061C46.4116 47.308 46.554 47.449 46.6559 47.6289C46.7609 47.8088 46.8134 48.0172 46.8134 48.254C46.8134 48.4879 46.7609 48.6963 46.6559 48.8792C46.554 49.0591 46.4116 49.2015 46.2287 49.3065C46.0458 49.4084 45.8389 49.4594 45.608 49.4594ZM45.608 49.1761C45.7789 49.1761 45.9303 49.1386 46.0622 49.0636C46.1942 48.9857 46.2976 48.8777 46.3726 48.7398C46.4505 48.5989 46.4895 48.4369 46.4895 48.254C46.4895 48.0681 46.4505 47.9062 46.3726 47.7683C46.2976 47.6304 46.1942 47.5239 46.0622 47.449C45.9303 47.371 45.7804 47.332 45.6125 47.332C45.4446 47.332 45.2946 47.371 45.1627 47.449C45.0308 47.5239 44.9258 47.6304 44.8479 47.7683C44.7699 47.9062 44.7309 48.0681 44.7309 48.254C44.7309 48.4369 44.7699 48.5989 44.8479 48.7398C44.9258 48.8777 45.0308 48.9857 45.1627 49.0636C45.2946 49.1386 45.4431 49.1761 45.608 49.1761ZM52.326 49.4369V48.9152L52.3125 48.8297V47.9572C52.3125 47.7563 52.2555 47.6019 52.1416 47.4939C52.0306 47.386 51.8642 47.332 51.6423 47.332C51.4894 47.332 51.344 47.3575 51.2061 47.4085C51.0681 47.4595 50.9512 47.5269 50.8553 47.6109L50.7113 47.3725C50.8313 47.2706 50.9752 47.1926 51.1431 47.1386C51.311 47.0817 51.4879 47.0532 51.6738 47.0532C51.9797 47.0532 52.215 47.1296 52.38 47.2826C52.5479 47.4325 52.6318 47.6619 52.6318 47.9707V49.4369H52.326ZM51.5119 49.4594C51.335 49.4594 51.1806 49.4309 51.0486 49.374C50.9197 49.314 50.8208 49.233 50.7518 49.1311C50.6828 49.0261 50.6484 48.9062 50.6484 48.7713C50.6484 48.6483 50.6768 48.5374 50.7338 48.4384C50.7938 48.3365 50.8897 48.2555 51.0217 48.1956C51.1566 48.1326 51.3365 48.1011 51.5614 48.1011H52.3755V48.3395H51.5704C51.3425 48.3395 51.1836 48.38 51.0936 48.4609C51.0067 48.5419 50.9632 48.6423 50.9632 48.7623C50.9632 48.8972 51.0157 49.0051 51.1206 49.0861C51.2256 49.1671 51.3725 49.2075 51.5614 49.2075C51.7413 49.2075 51.8957 49.1671 52.0246 49.0861C52.1566 49.0021 52.2525 48.8822 52.3125 48.7263L52.3844 48.9467C52.3245 49.1026 52.2195 49.227 52.0696 49.32C51.9227 49.4129 51.7368 49.4594 51.5119 49.4594ZM57.8876 50.332C57.6717 50.332 57.4648 50.3005 57.2669 50.2375C57.069 50.1745 56.9086 50.0846 56.7857 49.9676L56.9476 49.7248C57.0585 49.8237 57.195 49.9017 57.3569 49.9586C57.5218 50.0186 57.6957 50.0486 57.8786 50.0486C58.1784 50.0486 58.3988 49.9781 58.5398 49.8372C58.6807 49.6993 58.7511 49.4834 58.7511 49.1895V48.6004L58.7961 48.1956L58.7646 47.7908V47.0757H59.0705V49.1491C59.0705 49.5569 58.97 49.8552 58.7691 50.0441C58.5712 50.236 58.2774 50.332 57.8876 50.332ZM57.8291 49.347C57.6042 49.347 57.4018 49.299 57.2219 49.203C57.042 49.1041 56.8996 48.9677 56.7947 48.7938C56.6927 48.6198 56.6417 48.4205 56.6417 48.1956C56.6417 47.9707 56.6927 47.7728 56.7947 47.6019C56.8996 47.428 57.042 47.293 57.2219 47.1971C57.4018 47.1011 57.6042 47.0532 57.8291 47.0532C58.039 47.0532 58.2279 47.0966 58.3958 47.1836C58.5637 47.2706 58.6972 47.3995 58.7961 47.5704C58.8951 47.7413 58.9445 47.9497 58.9445 48.1956C58.9445 48.4414 58.8951 48.6498 58.7961 48.8207C58.6972 48.9917 58.5637 49.1221 58.3958 49.212C58.2279 49.302 58.039 49.347 57.8291 49.347ZM57.8606 49.0636C58.0345 49.0636 58.1889 49.0276 58.3239 48.9557C58.4588 48.8807 58.5652 48.7788 58.6432 48.6498C58.7212 48.5179 58.7601 48.3665 58.7601 48.1956C58.7601 48.0247 58.7212 47.8747 58.6432 47.7458C58.5652 47.6169 58.4588 47.5164 58.3239 47.4445C58.1889 47.3695 58.0345 47.332 57.8606 47.332C57.6897 47.332 57.5353 47.3695 57.3974 47.4445C57.2624 47.5164 57.156 47.6169 57.078 47.7458C57.0031 47.8747 56.9656 48.0247 56.9656 48.1956C56.9656 48.3665 57.0031 48.5179 57.078 48.6498C57.156 48.7788 57.2624 48.8807 57.3974 48.9557C57.5353 49.0276 57.6897 49.0636 57.8606 49.0636ZM61.061 49.4369V47.0757H61.3668V47.7188L61.3354 47.6064C61.4013 47.4265 61.5123 47.29 61.6682 47.1971C61.8241 47.1011 62.0175 47.0532 62.2484 47.0532V47.3635C62.2364 47.3635 62.2244 47.3635 62.2124 47.3635C62.2004 47.3605 62.1884 47.359 62.1764 47.359C61.9275 47.359 61.7326 47.4355 61.5917 47.5884C61.4508 47.7383 61.3803 47.9527 61.3803 48.2316V49.4369H61.061ZM64.914 49.4594C64.6681 49.4594 64.4522 49.4084 64.2663 49.3065C64.0804 49.2015 63.935 49.0591 63.8301 48.8792C63.7251 48.6963 63.6726 48.4879 63.6726 48.254C63.6726 48.0202 63.7221 47.8133 63.8211 47.6334C63.923 47.4535 64.0609 47.3125 64.2349 47.2106C64.4118 47.1056 64.6097 47.0532 64.8285 47.0532C65.0504 47.0532 65.2468 47.1041 65.4177 47.2061C65.5916 47.305 65.7281 47.446 65.827 47.6289C65.926 47.8088 65.9754 48.0172 65.9754 48.254C65.9754 48.269 65.9739 48.2855 65.9709 48.3035C65.9709 48.3185 65.9709 48.335 65.9709 48.353H63.9155V48.1146H65.8L65.6741 48.2091C65.6741 48.0382 65.6366 47.8867 65.5617 47.7548C65.4897 47.6199 65.3907 47.5149 65.2648 47.44C65.1389 47.365 64.9935 47.3275 64.8285 47.3275C64.6666 47.3275 64.5212 47.365 64.3923 47.44C64.2633 47.5149 64.1629 47.6199 64.0909 47.7548C64.019 47.8897 63.983 48.0442 63.983 48.2181V48.2675C63.983 48.4474 64.022 48.6064 64.0999 48.7443C64.1809 48.8792 64.2918 48.9857 64.4327 49.0636C64.5767 49.1386 64.7401 49.1761 64.923 49.1761C65.0669 49.1761 65.2003 49.1506 65.3233 49.0996C65.4492 49.0486 65.5572 48.9707 65.6471 48.8657L65.827 49.0726C65.7221 49.1985 65.5901 49.2945 65.4312 49.3605C65.2753 49.4264 65.1029 49.4594 64.914 49.4594ZM68.7303 49.4594C68.4844 49.4594 68.2686 49.4084 68.0827 49.3065C67.8968 49.2015 67.7513 49.0591 67.6464 48.8792C67.5414 48.6963 67.489 48.4879 67.489 48.254C67.489 48.0202 67.5384 47.8133 67.6374 47.6334C67.7393 47.4535 67.8773 47.3125 68.0512 47.2106C68.2281 47.1056 68.426 47.0532 68.6449 47.0532C68.8667 47.0532 69.0631 47.1041 69.234 47.2061C69.408 47.305 69.5444 47.446 69.6433 47.6289C69.7423 47.8088 69.7918 48.0172 69.7918 48.254C69.7918 48.269 69.7903 48.2855 69.7873 48.3035C69.7873 48.3185 69.7873 48.335 69.7873 48.353H67.7318V48.1146H69.6163L69.4904 48.2091C69.4904 48.0382 69.4529 47.8867 69.378 47.7548C69.306 47.6199 69.2071 47.5149 69.0811 47.44C68.9552 47.365 68.8098 47.3275 68.6449 47.3275C68.4829 47.3275 68.3375 47.365 68.2086 47.44C68.0797 47.5149 67.9792 47.6199 67.9072 47.7548C67.8353 47.8897 67.7993 48.0442 67.7993 48.2181V48.2675C67.7993 48.4474 67.8383 48.6064 67.9162 48.7443C67.9972 48.8792 68.1081 48.9857 68.2491 49.0636C68.393 49.1386 68.5564 49.1761 68.7393 49.1761C68.8832 49.1761 69.0167 49.1506 69.1396 49.0996C69.2655 49.0486 69.3735 48.9707 69.4634 48.8657L69.6433 49.0726C69.5384 49.1985 69.4065 49.2945 69.2475 49.3605C69.0916 49.4264 68.9192 49.4594 68.7303 49.4594ZM72.749 47.0532C72.9409 47.0532 73.1088 47.0907 73.2528 47.1656C73.3997 47.2376 73.5136 47.3485 73.5946 47.4984C73.6785 47.6484 73.7205 47.8373 73.7205 48.0651V49.4369H73.4012V48.0966C73.4012 47.8478 73.3382 47.6604 73.2123 47.5344C73.0893 47.4055 72.9154 47.341 72.6906 47.341C72.5226 47.341 72.3757 47.3755 72.2498 47.4445C72.1268 47.5104 72.0309 47.6079 71.9619 47.7368C71.896 47.8627 71.863 48.0157 71.863 48.1956V49.4369H71.5437V47.0757H71.8495V47.7233L71.8 47.6019C71.875 47.431 71.9949 47.2975 72.1598 47.2016C72.3247 47.1026 72.5211 47.0532 72.749 47.0532ZM78.018 49.4369V46.7788C78.018 46.5689 78.0795 46.3995 78.2024 46.2706C78.3254 46.1416 78.5023 46.0772 78.7331 46.0772C78.8231 46.0772 78.91 46.0892 78.994 46.1132C79.078 46.1372 79.1484 46.1746 79.2054 46.2256L79.0974 46.464C79.0525 46.425 79 46.3965 78.94 46.3785C78.8801 46.3575 78.8156 46.347 78.7466 46.347C78.6117 46.347 78.5083 46.3845 78.4363 46.4595C78.3643 46.5344 78.3284 46.6454 78.3284 46.7923V47.1521L78.3373 47.3005V49.4369H78.018ZM77.5952 47.341V47.0757H79.057V47.341H77.5952ZM81.5661 49.4594C81.3652 49.4594 81.1898 49.4219 81.0398 49.347C80.8899 49.272 80.773 49.1596 80.689 49.0096C80.6081 48.8597 80.5676 48.6723 80.5676 48.4474V47.0757H80.8869V48.4115C80.8869 48.6633 80.9484 48.8537 81.0713 48.9827C81.1972 49.1086 81.3727 49.1716 81.5975 49.1716C81.7624 49.1716 81.9049 49.1386 82.0248 49.0726C82.1477 49.0036 82.2407 48.9047 82.3037 48.7758C82.3696 48.6468 82.4026 48.4924 82.4026 48.3125V47.0757H82.7219V49.4369H82.4161V48.7893L82.4656 48.9062C82.3906 49.0801 82.2737 49.2165 82.1148 49.3155C81.9588 49.4114 81.7759 49.4594 81.5661 49.4594ZM85.4604 49.4594C85.2386 49.4594 85.0677 49.3994 84.9477 49.2795C84.8278 49.1596 84.7678 48.9902 84.7678 48.7713V46.5539H85.0871V48.7533C85.0871 48.8912 85.1216 48.9977 85.1906 49.0726C85.2625 49.1476 85.3645 49.1851 85.4964 49.1851C85.6374 49.1851 85.7543 49.1446 85.8472 49.0636L85.9597 49.293C85.8967 49.35 85.8203 49.3919 85.7303 49.4189C85.6433 49.4459 85.5534 49.4594 85.4604 49.4594ZM84.345 47.341V47.0757H85.8068V47.341H84.345ZM88.6189 49.4594C88.418 49.4594 88.2426 49.4219 88.0927 49.347C87.9428 49.272 87.8258 49.1596 87.7419 49.0096C87.6609 48.8597 87.6204 48.6723 87.6204 48.4474V47.0757H87.9398V48.4115C87.9398 48.6633 88.0012 48.8537 88.1242 48.9827C88.2501 49.1086 88.4255 49.1716 88.6504 49.1716C88.8153 49.1716 88.9577 49.1386 89.0777 49.0726C89.2006 49.0036 89.2936 48.9047 89.3565 48.7758C89.4225 48.6468 89.4555 48.4924 89.4555 48.3125V47.0757H89.7748V49.4369H89.469V48.7893L89.5184 48.9062C89.4435 49.0801 89.3265 49.2165 89.1676 49.3155C89.0117 49.4114 88.8288 49.4594 88.6189 49.4594ZM91.7667 49.4369V47.0757H92.0725V47.7188L92.0411 47.6064C92.107 47.4265 92.218 47.29 92.3739 47.1971C92.5298 47.1011 92.7232 47.0532 92.9541 47.0532V47.3635C92.9421 47.3635 92.9301 47.3635 92.9181 47.3635C92.9061 47.3605 92.8941 47.359 92.8821 47.359C92.6332 47.359 92.4383 47.4355 92.2974 47.5884C92.1565 47.7383 92.086 47.9527 92.086 48.2316V49.4369H91.7667ZM95.6197 49.4594C95.3738 49.4594 95.1579 49.4084 94.972 49.3065C94.7861 49.2015 94.6407 49.0591 94.5358 48.8792C94.4308 48.6963 94.3784 48.4879 94.3784 48.254C94.3784 48.0202 94.4278 47.8133 94.5268 47.6334C94.6287 47.4535 94.7667 47.3125 94.9406 47.2106C95.1175 47.1056 95.3154 47.0532 95.5342 47.0532C95.7561 47.0532 95.9525 47.1041 96.1234 47.2061C96.2973 47.305 96.4338 47.446 96.5327 47.6289C96.6317 47.8088 96.6811 48.0172 96.6811 48.254C96.6811 48.269 96.6796 48.2855 96.6766 48.3035C96.6766 48.3185 96.6766 48.335 96.6766 48.353H94.6212V48.1146H96.5057L96.3798 48.2091C96.3798 48.0382 96.3423 47.8867 96.2674 47.7548C96.1954 47.6199 96.0965 47.5149 95.9705 47.44C95.8446 47.365 95.6992 47.3275 95.5342 47.3275C95.3723 47.3275 95.2269 47.365 95.098 47.44C94.969 47.5149 94.8686 47.6199 94.7966 47.7548C94.7247 47.8897 94.6887 48.0442 94.6887 48.2181V48.2675C94.6887 48.4474 94.7277 48.6064 94.8056 48.7443C94.8866 48.8792 94.9975 48.9857 95.1385 49.0636C95.2824 49.1386 95.4458 49.1761 95.6287 49.1761C95.7726 49.1761 95.9061 49.1506 96.029 49.0996C96.1549 49.0486 96.2629 48.9707 96.3528 48.8657L96.5327 49.0726C96.4278 49.1985 96.2958 49.2945 96.1369 49.3605C95.981 49.4264 95.8086 49.4594 95.6197 49.4594Z" fill="#32CD8B"/>
<path d="M95.6932 15.1078C94.843 17.1288 95.0034 19.3181 95.1898 20.1602C95.7678 19.849 97.1362 18.7213 97.9864 16.7004C98.8366 14.6794 98.7881 12.7464 98.6576 12.0324C98.0237 12.2155 96.5434 13.0868 95.6932 15.1078Z" fill="#32CD8B"/>
<path d="M97.7072 19.1169C96.5438 19.4684 95.8428 20.3983 95.6377 20.8193C96.1597 20.8193 97.4163 20.7095 98.2665 20.2701C99.1167 19.8308 99.7767 19.1718 100 18.8972C99.7207 18.824 98.8706 18.7654 97.7072 19.1169Z" fill="#32CD8B"/>
<path d="M92.5612 17.4693C92.8744 18.4797 93.9222 19.7575 94.4069 20.27C94.6306 19.4829 94.7985 17.7438 94.351 16.316C93.9935 15.1752 92.7476 14.0827 92.2256 13.7349C92.2256 14.5037 92.0578 15.8453 92.5612 17.4693Z" fill="#32CD8B"/>
<defs>
<linearGradient id="paint0_linear_600_1392" x1="12.098" y1="-1.01391" x2="28.647" y2="44.0161" gradientUnits="userSpaceOnUse">
<stop offset="0.211034" stop-color="#178270"/>
<stop offset="0.671507" stop-color="#33CE8C"/>
<stop offset="0.924512" stop-color="#182A50"/>
</linearGradient>
<linearGradient id="paint1_linear_600_1392" x1="22.6385" y1="18.2735" x2="14.7274" y2="28.9319" gradientUnits="userSpaceOnUse">
<stop stop-color="#178270"/>
<stop offset="0.962921" stop-color="#182A50"/>
</linearGradient>
<linearGradient id="paint2_linear_600_1392" x1="4.97408" y1="0.992249" x2="4.97408" y2="43.1935" gradientUnits="userSpaceOnUse">
<stop stop-color="#178270"/>
<stop offset="0.739583" stop-color="#32CD8B"/>
<stop offset="1" stop-color="#182A50"/>
</linearGradient>
<linearGradient id="paint3_linear_600_1392" x1="16.5799" y1="0.318171" x2="16.5799" y2="12.6383" gradientUnits="userSpaceOnUse">
<stop stop-color="#178270"/>
<stop offset="1" stop-color="#182A50"/>
</linearGradient>
</defs>
</svg>
